<?xml version="1.0" standalone="no"?>
<!DOCTYPE svg PUBLIC "-//W3C//DTD SVG 20010904//EN"
 "http://www.w3.org/TR/2001/REC-SVG-20010904/DTD/svg10.dtd">
<svg version="1.0" xmlns="http://www.w3.org/2000/svg"
 width="429.000000pt" height="424.000000pt" viewBox="0 0 429.000000 424.000000"
 preserveAspectRatio="xMidYMid meet">
<metadata>
Created by potrace 1.16, written by Peter Selinger 2001-2019
</metadata>
<g transform="translate(0.000000,424.000000) scale(0.100000,-0.100000)"
fill="#000000" stroke="none">
<path d="M2885 4133 c-331 -70 -614 -330 -713 -654 -82 -266 -39 -574 111
-807 269 -416 816 -558 1254 -327 244 129 410 338 485 614 18 62 21 104 21
236 0 192 -16 266 -93 422 -133 270 -374 458 -662 517 -98 20 -307 20 -403 -1z
m405 -144 c162 -40 335 -151 440 -282 58 -73 132 -217 155 -302 26 -98 31
-266 11 -365 -59 -290 -265 -527 -539 -621 -447 -153 -927 99 -1059 558 -30
103 -32 322 -5 423 120 436 561 697 997 589z"/>
<path d="M2910 3919 c-268 -70 -475 -274 -546 -539 -24 -89 -24 -281 0 -370
72 -267 278 -473 541 -540 105 -27 264 -27 368 -1 485 124 714 679 459 1109
-52 87 -122 162 -151 162 -27 0 -71 -42 -71 -68 0 -10 23 -47 51 -82 101 -126
143 -242 143 -395 0 -175 -57 -309 -184 -436 -121 -121 -261 -179 -430 -179
-169 0 -309 58 -430 179 -127 127 -184 262 -184 436 0 173 57 308 184 435 178
179 428 228 668 133 71 -29 107 -25 124 12 19 43 2 74 -56 101 -142 65 -337
82 -486 43z"/>
<path d="M2777 3489 c-56 -29 -81 -47 -88 -67 -23 -59 33 -104 96 -77 l35 14
0 -199 0 -199 26 -20 c15 -12 32 -21 39 -21 7 0 24 9 39 21 l26 20 0 263 c0
220 -2 265 -16 284 -23 33 -67 27 -157 -19z"/>
<path d="M3046 3514 c-27 -26 -24 -71 6 -96 16 -15 40 -18 123 -18 110 0 133
-9 120 -50 -5 -16 -15 -20 -48 -20 -70 0 -119 -19 -163 -64 -50 -49 -68 -118
-62 -232 5 -108 6 -108 191 -112 167 -3 195 4 211 50 7 20 5 33 -8 52 -16 26
-19 26 -136 26 l-120 0 0 53 c0 28 4 57 8 63 14 21 51 34 100 34 54 0 100 25
136 73 30 40 30 144 0 184 -47 64 -75 73 -215 73 -103 0 -131 -3 -143 -16z"/>
<path d="M1552 4015 c-49 -21 -58 -80 -17 -120 49 -50 129 -20 129 48 0 63
-52 97 -112 72z"/>
<path d="M830 3890 c-32 -32 -26 -80 15 -120 l35 -34 -35 -36 c-91 -93 6 -193
103 -105 l39 34 33 -34 c44 -45 88 -48 120 -8 28 35 21 76 -20 118 l-30 31 30
29 c43 43 49 87 17 119 -35 35 -69 33 -115 -8 l-37 -34 -38 34 c-43 40 -86 45
-117 14z"/>
<path d="M1019 3329 c-427 -36 -780 -361 -854 -788 -67 -380 98 -760 422 -972
271 -176 640 -202 930 -65 494 235 695 823 447 1311 -143 281 -442 488 -739
511 -38 3 -81 6 -95 8 -14 1 -64 -1 -111 -5z m286 -160 c275 -65 494 -271 588
-552 29 -86 31 -101 31 -242 0 -142 -2 -155 -32 -245 -94 -282 -320 -491 -602
-555 -98 -22 -261 -22 -360 0 -102 23 -260 101 -343 169 -394 328 -394 936 0
1260 201 167 461 226 718 165z"/>
<path d="M922 3100 c-207 -54 -390 -205 -482 -395 -58 -120 -74 -190 -74 -330
0 -140 16 -210 74 -330 126 -259 377 -415 670 -415 342 0 627 215 722 545 29
103 32 286 4 385 -72 267 -280 473 -543 541 -102 26 -270 25 -371 -1z m343
-130 c207 -53 377 -221 441 -435 24 -81 24 -239 0 -320 -46 -155 -163 -304
-297 -378 -181 -101 -417 -101 -598 0 -133 73 -252 225 -297 378 -24 81 -24
239 0 320 45 154 164 305 297 379 134 74 302 95 454 56z"/>
<path d="M927 2692 c-14 -15 -17 -42 -17 -149 0 -159 2 -163 107 -163 39 0 91
-3 117 -6 l46 -7 0 -62 0 -63 -114 -4 c-95 -2 -117 -6 -135 -22 -27 -24 -27
-68 0 -92 19 -17 37 -19 153 -19 147 0 170 8 206 68 26 42 29 211 5 261 -25
53 -78 76 -174 76 l-81 0 0 34 0 34 121 4 c132 3 149 11 149 68 0 54 -20 60
-202 60 -147 0 -167 -2 -181 -18z"/>
<path d="M2725 2104 c-210 -21 -407 -112 -562 -258 -135 -127 -216 -257 -270
-433 -25 -81 -27 -102 -27 -263 -1 -154 2 -185 22 -254 80 -275 259 -491 507
-611 135 -66 217 -86 373 -92 148 -6 244 5 353 42 432 147 702 571 649 1021
-55 468 -435 824 -905 847 -55 3 -118 3 -140 1z m292 -164 c236 -61 427 -216
533 -435 67 -139 84 -212 83 -365 0 -106 -5 -139 -27 -215 -84 -281 -286 -483
-571 -571 -48 -15 -92 -19 -220 -19 -154 0 -163 1 -251 32 -345 120 -564 423
-564 777 0 224 72 406 224 564 211 221 502 306 793 232z"/>
<path d="M2730 1889 c-91 -9 -196 -44 -287 -94 -82 -46 -223 -184 -272 -267
-113 -194 -133 -450 -50 -657 82 -205 252 -365 464 -437 115 -39 286 -45 405
-15 270 67 481 274 551 538 29 108 29 269 0 376 -96 363 -436 595 -811 556z
m302 -166 c193 -76 334 -235 384 -433 25 -101 16 -264 -21 -355 -142 -353
-525 -504 -858 -337 -101 50 -219 170 -270 273 -175 357 20 776 408 876 31 8
94 11 165 9 100 -2 125 -7 192 -33z"/>
<path d="M2636 1464 c-21 -20 -20 -78 1 -95 10 -9 55 -16 132 -19 l116 -5 3
-27 c4 -34 -8 -37 -142 -41 -94 -2 -100 -3 -119 -28 -20 -28 -17 -57 9 -84 12
-11 40 -15 118 -15 129 0 138 -6 134 -80 l-3 -55 -116 -5 c-130 -6 -149 -14
-149 -66 0 -60 16 -66 166 -62 144 3 162 9 208 72 28 36 35 174 13 227 -12 30
-12 39 -1 60 20 35 17 118 -5 159 -10 19 -36 45 -57 57 -35 20 -53 23 -166 23
-102 0 -130 -3 -142 -16z"/>
<path d="M1230 1064 c-84 -36 -124 -106 -118 -204 3 -53 9 -76 31 -107 40 -58
98 -87 172 -87 66 1 104 16 149 61 78 77 75 224 -6 300 -54 51 -157 68 -228
37z"/>
</g>
</svg>
